# xmcd
# 
# Track frame offsets:
#     150
#     14605
#     29505
#     44625
#     57540
#     69790
#     86492
#     97847
#     113060
#     130380
# 
# Disc length: 1942
# 
# Revision: 3
# Processed by: cddbd v1.5.2PL0 Copyright (c) Steve Scherf et al.
# Submitted via: fre:ac v1.1beta1pre3
# 
DISCID=8407940a
DTITLE=Sawyer Brown - Greatest Hits 1990-1995
DYEAR=1995
DGENRE=Country
TTITLE0=Some Girls Do
TTITLE1=Thank God For You
TTITLE2=All These Years
TTITLE3=Dirt Road
TTITLE4=This Time
TTITLE5=The Walk
TTITLE6=Trouble On The Line
TTITLE7=Cafe On The Corner
TTITLE8=I Don't Believe in Goodbye
TTITLE9=The Boys and Me
EXTD=YEAR: 1995 ID3G: 2
EXTT0=
EXTT1=
EXTT2=
EXTT3=
EXTT4=
EXTT5=
EXTT6=
EXTT7=
EXTT8=
EXTT9=
PLAYORDER=
